<svg xmlns="http://www.w3.org/2000/svg" xmlns:xlink="http://www.w3.org/1999/xlink" width="2000" zoomAndPan="magnify" viewBox="0 0 1500 1499.999933" height="2000" preserveAspectRatio="xMidYMid meet" version="1.0"><defs><g/><clipPath id="59c57a3686"><path d="M 727 492 L 907.238281 492 L 907.238281 568 L 727 568 Z M 727 492 " clip-rule="nonzero"/></clipPath></defs><g clip-path="url(#59c57a3686)"><path fill="#b852ff" d="M 789.4375 492.226562 C 780.632812 492.226562 772.425781 496.796875 767.683594 504.246094 L 727.734375 567.726562 L 845.890625 567.726562 C 854.695312 567.726562 862.90625 563.15625 867.644531 555.707031 L 907.59375 492.226562 Z M 789.4375 492.226562 " fill-opacity="1" fill-rule="nonzero"/></g><path fill="#36cb61" d="M 652.742188 600.226562 L 612.792969 663.707031 L 730.949219 663.707031 C 739.753906 663.707031 747.964844 659.136719 752.703125 651.6875 L 792.652344 588.207031 L 674.496094 588.207031 C 665.691406 588.207031 657.484375 592.777344 652.742188 600.226562 Z M 652.742188 600.226562 " fill-opacity="1" fill-rule="nonzero"/><path fill="#009acb" d="M 733.066406 517.957031 L 773.015625 454.476562 L 654.945312 454.476562 C 646.140625 454.476562 637.929688 459.046875 633.191406 466.496094 L 593.242188 529.976562 L 711.398438 529.976562 C 720.203125 529.976562 728.410156 525.40625 733.066406 517.957031 Z M 733.066406 517.957031 " fill-opacity="1" fill-rule="nonzero"/><g fill="#000000" fill-opacity="1"><g transform="translate(298.187233, 840.82702)"><g><path d="M 29.0625 -99.046875 L 29.0625 -41.453125 C 29.0625 -37.898438 29.648438 -34.625 30.828125 -31.625 C 32.003906 -28.625 33.65625 -26.015625 35.78125 -23.796875 C 37.914062 -21.578125 40.4375 -19.851562 43.34375 -18.625 C 46.257812 -17.40625 49.453125 -16.796875 52.921875 -16.796875 C 56.390625 -16.796875 59.566406 -17.40625 62.453125 -18.625 C 65.335938 -19.851562 67.859375 -21.578125 70.015625 -23.796875 C 72.171875 -26.015625 73.835938 -28.625 75.015625 -31.625 C 76.191406 -34.625 76.78125 -37.898438 76.78125 -41.453125 L 76.78125 -99.046875 C 76.78125 -100.597656 77.582031 -101.375 79.1875 -101.375 L 93.109375 -101.375 C 94.753906 -101.375 95.578125 -100.597656 95.578125 -99.046875 L 95.578125 -41.390625 C 95.578125 -35.035156 94.539062 -29.234375 92.46875 -23.984375 C 90.40625 -18.742188 87.472656 -14.210938 83.671875 -10.390625 C 79.878906 -6.578125 75.367188 -3.625 70.140625 -1.53125 C 64.921875 0.550781 59.179688 1.59375 52.921875 1.59375 C 46.609375 1.59375 40.84375 0.539062 35.625 -1.5625 C 30.40625 -3.675781 25.894531 -6.65625 22.09375 -10.5 C 18.289062 -14.34375 15.367188 -18.90625 13.328125 -24.1875 C 11.285156 -29.476562 10.265625 -35.300781 10.265625 -41.65625 L 10.265625 -99.046875 C 10.265625 -100.597656 11 -101.375 12.46875 -101.375 L 26.859375 -101.375 C 28.328125 -101.375 29.0625 -100.597656 29.0625 -99.046875 Z M 29.0625 -99.046875 "/></g></g></g><g fill="#000000" fill-opacity="1"><g transform="translate(405.732779, 840.82702)"><g><path d="M 44.25 -101.234375 C 50.738281 -101.234375 56.691406 -100.242188 62.109375 -98.265625 C 67.535156 -96.296875 72.25 -93.507812 76.25 -89.90625 C 80.25 -86.3125 83.347656 -82.066406 85.546875 -77.171875 C 87.742188 -72.285156 88.84375 -66.9375 88.84375 -61.125 C 88.84375 -55.300781 87.742188 -49.957031 85.546875 -45.09375 C 83.347656 -40.226562 80.25 -36.023438 76.25 -32.484375 C 72.25 -28.953125 67.535156 -26.21875 62.109375 -24.28125 C 56.691406 -22.351562 50.738281 -21.390625 44.25 -21.390625 L 30.921875 -21.390625 L 30.921875 -2.859375 C 30.921875 -2.015625 30.65625 -1.316406 30.125 -0.765625 C 29.59375 -0.210938 28.835938 0.0625 27.859375 0.0625 L 15.0625 0.0625 C 14.125 0.0625 13.390625 -0.203125 12.859375 -0.734375 C 12.328125 -1.265625 12.0625 -1.972656 12.0625 -2.859375 L 12.0625 -98.3125 C 12.0625 -99.195312 12.335938 -99.90625 12.890625 -100.4375 C 13.453125 -100.96875 14.175781 -101.234375 15.0625 -101.234375 L 21.921875 -101.234375 C 23.304688 -101.234375 24.550781 -101.234375 25.65625 -101.234375 C 26.769531 -101.234375 27.613281 -101.234375 28.1875 -101.234375 Z M 42.984375 -37.921875 C 46.941406 -37.921875 50.5625 -38.472656 53.84375 -39.578125 C 57.132812 -40.691406 59.988281 -42.289062 62.40625 -44.375 C 64.832031 -46.46875 66.710938 -48.9375 68.046875 -51.78125 C 69.378906 -54.625 70.046875 -57.78125 70.046875 -61.25 C 70.046875 -64.675781 69.378906 -67.8125 68.046875 -70.65625 C 66.710938 -73.5 64.832031 -75.972656 62.40625 -78.078125 C 59.988281 -80.191406 57.132812 -81.828125 53.84375 -82.984375 C 50.5625 -84.140625 46.941406 -84.71875 42.984375 -84.71875 L 30.921875 -84.71875 L 30.921875 -37.921875 Z M 42.984375 -37.921875 "/></g></g></g><g fill="#000000" fill-opacity="1"><g transform="translate(501.947759, 840.82702)"><g><path d="M 76.640625 -16.53125 C 78.109375 -16.53125 78.84375 -15.773438 78.84375 -14.265625 L 78.84375 -2.265625 C 78.84375 -0.753906 78.109375 0 76.640625 0 L 14.328125 0 C 12.816406 0 12.0625 -0.753906 12.0625 -2.265625 L 12.0625 -99.109375 C 12.0625 -100.617188 12.816406 -101.375 14.328125 -101.375 L 28.71875 -101.375 C 30.1875 -101.375 30.921875 -100.617188 30.921875 -99.109375 L 30.921875 -16.53125 Z M 76.640625 -16.53125 "/></g></g></g><g fill="#000000" fill-opacity="1"><g transform="translate(585.032614, 840.82702)"><g><path d="M 6 -50.453125 C 6 -56.316406 6.863281 -61.878906 8.59375 -67.140625 C 10.332031 -72.410156 12.800781 -77.210938 16 -81.546875 C 19.195312 -85.878906 22.972656 -89.632812 27.328125 -92.8125 C 31.679688 -95.988281 36.5 -98.441406 41.78125 -100.171875 C 47.070312 -101.910156 52.648438 -102.78125 58.515625 -102.78125 C 64.378906 -102.78125 69.957031 -101.910156 75.25 -100.171875 C 80.539062 -98.441406 85.363281 -95.988281 89.71875 -92.8125 C 94.070312 -89.632812 97.847656 -85.878906 101.046875 -81.546875 C 104.242188 -77.210938 106.707031 -72.410156 108.4375 -67.140625 C 110.175781 -61.878906 111.046875 -56.316406 111.046875 -50.453125 C 111.046875 -44.585938 110.175781 -39.03125 108.4375 -33.78125 C 106.707031 -28.539062 104.242188 -23.765625 101.046875 -19.453125 C 97.847656 -15.148438 94.070312 -11.421875 89.71875 -8.265625 C 85.363281 -5.109375 80.539062 -2.675781 75.25 -0.96875 C 69.957031 0.738281 64.378906 1.59375 58.515625 1.59375 C 52.648438 1.59375 47.070312 0.738281 41.78125 -0.96875 C 36.5 -2.675781 31.679688 -5.109375 27.328125 -8.265625 C 22.972656 -11.421875 19.195312 -15.148438 16 -19.453125 C 12.800781 -23.765625 10.332031 -28.539062 8.59375 -33.78125 C 6.863281 -39.03125 6 -44.585938 6 -50.453125 Z M 24.796875 -50.453125 C 24.796875 -45.742188 25.648438 -41.378906 27.359375 -37.359375 C 29.066406 -33.335938 31.460938 -29.816406 34.546875 -26.796875 C 37.640625 -23.773438 41.226562 -21.421875 45.3125 -19.734375 C 49.40625 -18.046875 53.804688 -17.203125 58.515625 -17.203125 C 63.273438 -17.203125 67.6875 -18.046875 71.75 -19.734375 C 75.8125 -21.421875 79.382812 -23.773438 82.46875 -26.796875 C 85.5625 -29.816406 87.960938 -33.335938 89.671875 -37.359375 C 91.390625 -41.378906 92.25 -45.742188 92.25 -50.453125 C 92.25 -55.210938 91.378906 -59.625 89.640625 -63.6875 C 87.910156 -67.75 85.507812 -71.300781 82.4375 -74.34375 C 79.375 -77.394531 75.796875 -79.773438 71.703125 -81.484375 C 67.617188 -83.191406 63.222656 -84.046875 58.515625 -84.046875 C 53.804688 -84.046875 49.40625 -83.191406 45.3125 -81.484375 C 41.226562 -79.773438 37.65625 -77.394531 34.59375 -74.34375 C 31.53125 -71.300781 29.128906 -67.75 27.390625 -63.6875 C 25.660156 -59.625 24.796875 -55.210938 24.796875 -50.453125 Z M 24.796875 -50.453125 "/></g></g></g><g fill="#000000" fill-opacity="1"><g transform="translate(703.708774, 840.82702)"><g><path d="M 3.9375 -87.78125 L 3.9375 -98.3125 C 3.9375 -100.257812 4.910156 -101.234375 6.859375 -101.234375 L 76.25 -101.234375 C 77.132812 -101.234375 77.832031 -100.96875 78.34375 -100.4375 C 78.851562 -99.90625 79.109375 -99.195312 79.109375 -98.3125 L 79.109375 -87.78125 C 79.109375 -85.78125 78.15625 -84.78125 76.25 -84.78125 L 50.859375 -84.78125 L 50.859375 -2.859375 C 50.859375 -0.910156 49.859375 0.0625 47.859375 0.0625 L 34.984375 0.0625 C 33.035156 0.0625 32.0625 -0.910156 32.0625 -2.859375 L 32.0625 -84.78125 L 6.859375 -84.78125 C 5.972656 -84.78125 5.265625 -85.035156 4.734375 -85.546875 C 4.203125 -86.054688 3.9375 -86.800781 3.9375 -87.78125 Z M 3.9375 -87.78125 "/></g></g></g><g fill="#000000" fill-opacity="1"><g transform="translate(788.393216, 840.82702)"><g><path d="M 75.640625 -29.921875 L 89.25 -3.40625 C 89.738281 -2.425781 89.800781 -1.601562 89.4375 -0.9375 C 89.082031 -0.269531 88.375 0.0625 87.3125 0.0625 L 72.65625 0.0625 C 72.03125 0.0625 71.394531 -0.164062 70.75 -0.625 C 70.101562 -1.09375 69.601562 -1.6875 69.25 -2.40625 L 58.78125 -23.859375 C 57.675781 -23.679688 56.546875 -23.554688 55.390625 -23.484375 C 54.234375 -23.421875 53.054688 -23.390625 51.859375 -23.390625 L 30.921875 -23.390625 L 30.921875 -2.859375 C 30.921875 -1.972656 30.628906 -1.265625 30.046875 -0.734375 C 29.472656 -0.203125 28.742188 0.0625 27.859375 0.0625 L 15.0625 0.0625 C 14.21875 0.0625 13.503906 -0.203125 12.921875 -0.734375 C 12.347656 -1.265625 12.0625 -1.972656 12.0625 -2.859375 L 12.0625 -98.375 C 12.0625 -99.21875 12.347656 -99.90625 12.921875 -100.4375 C 13.503906 -100.96875 14.21875 -101.234375 15.0625 -101.234375 L 18.390625 -101.234375 C 20.347656 -101.234375 22.269531 -101.234375 24.15625 -101.234375 C 26.050781 -101.234375 27.394531 -101.234375 28.1875 -101.234375 L 51.859375 -101.234375 C 57.804688 -101.234375 63.269531 -100.265625 68.25 -98.328125 C 73.226562 -96.398438 77.550781 -93.679688 81.21875 -90.171875 C 84.882812 -86.660156 87.726562 -82.503906 89.75 -77.703125 C 91.769531 -72.910156 92.78125 -67.671875 92.78125 -61.984375 C 92.78125 -55.097656 91.242188 -48.890625 88.171875 -43.359375 C 85.109375 -37.828125 80.929688 -33.347656 75.640625 -29.921875 Z M 50.65625 -39.125 C 55.1875 -39.125 59.207031 -40.097656 62.71875 -42.046875 C 66.226562 -44.003906 68.984375 -46.71875 70.984375 -50.1875 C 72.984375 -53.65625 73.984375 -57.632812 73.984375 -62.125 C 73.984375 -65.40625 73.394531 -68.421875 72.21875 -71.171875 C 71.039062 -73.929688 69.40625 -76.332031 67.3125 -78.375 C 65.226562 -80.425781 62.765625 -82.003906 59.921875 -83.109375 C 57.078125 -84.222656 53.988281 -84.78125 50.65625 -84.78125 L 30.921875 -84.78125 L 30.921875 -39.125 Z M 50.65625 -39.125 "/></g></g></g><g fill="#000000" fill-opacity="1"><g transform="translate(891.139957, 840.82702)"><g><path d="M 98.046875 -3.265625 C 98.484375 -2.285156 98.503906 -1.472656 98.109375 -0.828125 C 97.710938 -0.179688 96.957031 0.140625 95.84375 0.140625 L 81.515625 0.140625 C 80.753906 0.140625 80.070312 -0.113281 79.46875 -0.625 C 78.875 -1.144531 78.421875 -1.757812 78.109375 -2.46875 L 74.046875 -12.328125 L 27.53125 -12.328125 L 23.46875 -2.53125 C 23.15625 -1.820312 22.707031 -1.210938 22.125 -0.703125 C 21.550781 -0.191406 20.84375 0.0625 20 0.0625 L 5.734375 0.0625 C 4.617188 0.0625 3.847656 -0.242188 3.421875 -0.859375 C 3.003906 -1.484375 3.019531 -2.304688 3.46875 -3.328125 L 46.59375 -99.96875 C 46.945312 -100.769531 47.46875 -101.40625 48.15625 -101.875 C 48.84375 -102.34375 49.539062 -102.578125 50.25 -102.578125 L 51.125 -102.578125 C 51.925781 -102.578125 52.644531 -102.332031 53.28125 -101.84375 C 53.925781 -101.351562 54.425781 -100.707031 54.78125 -99.90625 Z M 34.125 -28.453125 L 67.390625 -28.453125 L 50.78125 -68.78125 Z M 34.125 -28.453125 "/></g></g></g><g fill="#000000" fill-opacity="1"><g transform="translate(994.286601, 840.82702)"><g><path d="M 12.0625 -2.9375 L 12.0625 -98.3125 C 12.0625 -99.195312 12.347656 -99.90625 12.921875 -100.4375 C 13.503906 -100.96875 14.21875 -101.234375 15.0625 -101.234375 L 52.328125 -101.234375 C 58.273438 -101.234375 63.859375 -100.421875 69.078125 -98.796875 C 74.304688 -97.179688 79.039062 -94.875 83.28125 -91.875 C 87.519531 -88.875 91.148438 -85.285156 94.171875 -81.109375 C 97.191406 -76.929688 99.523438 -72.265625 101.171875 -67.109375 C 102.816406 -61.960938 103.640625 -56.457031 103.640625 -50.59375 C 103.640625 -44.769531 102.816406 -39.289062 101.171875 -34.15625 C 99.523438 -29.019531 97.179688 -24.363281 94.140625 -20.1875 C 91.097656 -16.019531 87.453125 -12.421875 83.203125 -9.390625 C 78.960938 -6.367188 74.222656 -4.046875 68.984375 -2.421875 C 63.742188 -0.804688 58.097656 0 52.046875 0 L 15.125 0 C 14.238281 0 13.503906 -0.273438 12.921875 -0.828125 C 12.347656 -1.390625 12.0625 -2.09375 12.0625 -2.9375 Z M 30.921875 -17.859375 L 51.984375 -17.859375 C 56.742188 -17.859375 61.117188 -18.703125 65.109375 -20.390625 C 69.109375 -22.078125 72.570312 -24.421875 75.5 -27.421875 C 78.4375 -30.421875 80.71875 -33.898438 82.34375 -37.859375 C 83.96875 -41.816406 84.78125 -46.0625 84.78125 -50.59375 C 84.78125 -55.257812 83.96875 -59.585938 82.34375 -63.578125 C 80.71875 -67.578125 78.453125 -71.085938 75.546875 -74.109375 C 72.640625 -77.128906 69.207031 -79.472656 65.25 -81.140625 C 61.289062 -82.804688 56.957031 -83.640625 52.25 -83.640625 L 30.921875 -83.578125 Z M 30.921875 -17.859375 "/></g></g></g><g fill="#000000" fill-opacity="1"><g transform="translate(1105.564545, 840.82702)"><g><path d="M 85.375 -17.859375 C 86.625 -17.859375 87.613281 -17.523438 88.34375 -16.859375 C 89.070312 -16.191406 89.4375 -15.28125 89.4375 -14.125 L 89.4375 -2.9375 C 89.4375 -2.039062 89.160156 -1.328125 88.609375 -0.796875 C 88.054688 -0.265625 87.3125 0 86.375 0 L 15.0625 0 C 13.0625 0 12.0625 -0.976562 12.0625 -2.9375 L 12.0625 -98.25 C 12.0625 -100.238281 13.0625 -101.234375 15.0625 -101.234375 L 84.984375 -101.234375 C 85.960938 -101.234375 86.71875 -100.96875 87.25 -100.4375 C 87.78125 -99.90625 88.046875 -99.195312 88.046875 -98.3125 L 88.046875 -86.453125 C 88.046875 -84.398438 87.023438 -83.375 84.984375 -83.375 L 30.921875 -83.375 L 30.921875 -55.453125 L 73.25 -55.453125 C 74.363281 -55.453125 75.226562 -55.1875 75.84375 -54.65625 C 76.46875 -54.125 76.78125 -53.347656 76.78125 -52.328125 L 76.78125 -41.1875 C 76.78125 -40.300781 76.46875 -39.578125 75.84375 -39.015625 C 75.226562 -38.460938 74.363281 -38.1875 73.25 -38.1875 L 30.921875 -38.1875 L 30.921875 -17.859375 Z M 85.375 -17.859375 "/></g></g></g></svg>